#!OML:ASF H:\Dans Jumps\Project 1\Capture day 1\Session 1\subject.ASF
:FULLY-SPECIFIED
:DEGREES
648
root 0.283473 17.7931 -1.86814 6.55998 -1.11628 -1.23568
lowerback -2.88117 -0.656314 -0.324102
upperback 2.97917 -0.939505 1.83403
thorax 4.72911 -0.51248 2.01319
lowerneck -11.0194 1.07028 -1.69928
upperneck 38.5438 2.26063 -0.530401
head 15.3384 0.628838 0.433688
rclavicle -3.67752e-015 3.57812e-015
rhumerus -25.1073 -15.1482 -81.3587
rradius 22.9757
rwrist 33.5352
rhand -20.6843 -26.4058
rfingers 7.12502
rthumb 5.67912 -56.3097
lclavicle -3.67752e-015 3.57812e-015
lhumerus -21.6038 -7.06839 91.3095
lradius 17.3044
lwrist 4.47931
lhand -26.2579 -5.81462
lfingers 7.12502
lthumb 0.296614 24.1649
rfemur -13.7927 -2.57314 19.4203
rtibia 20.557
rfoot -11.8904 -2.22468
rtoes 14.9479
lfemur -11.7099 6.909 -17.6341
ltibia 16.4243
lfoot -9.15763 2.42896
ltoes 4.72019
649
root 0.283543 17.793 -1.86863 6.55313 -1.10832 -1.23611
lowerback -2.87608 -0.654364 -0.329246
upperback 2.97928 -0.936683 1.83591
thorax 4.72634 -0.511279 2.01828
lowerneck -11.0163 1.0678 -1.70077
upperneck 38.5325 2.25554 -0.526214
head 15.3319 0.627314 0.434869
rclavicle 9.93923e-016 7.95139e-015
rhumerus -25.1018 -15.1512 -81.3575
rradius 22.9695
rwrist 33.5522
rhand -20.6847 -26.4171
rfingers 7.12502
rthumb 5.67875 -56.321
lclavicle 9.93923e-016 7.95139e-015
lhumerus -21.6145 -7.12826 91.325
lradius 17.3109
lwrist 4.50781
lhand -26.227 -5.77141
lfingers 7.12502
lthumb 0.32654 24.2081
rfemur -13.7866 -2.56953 19.4204
rtibia 20.5592
rfoot -11.8935 -2.23578
rtoes 14.9526
lfemur -11.7066 6.90184 -17.6325
ltibia 16.4271
lfoot -9.15766 2.42825
ltoes 4.72874
650
root 0.283646 17.7929 -1.86905 6.5487 -1.10022 -1.23601
lowerback -2.87319 -0.65257 -0.333504
upperback 2.97794 -0.934069 1.83693
thorax 4.72329 -0.510122 2.02194
lowerneck -11.0149 1.06597 -1.69825
upperneck 38.5241 2.25165 -0.52512
head 15.3274 0.626399 0.434239
rclavicle -6.11263e-015 -1.59028e-014
rhumerus -25.0979 -15.1541 -81.3571
rradius 22.9627
rwrist 33.569
rhand -20.6809 -26.4268
rfingers 7.12502
rthumb 5.68247 -56.3306
lclavicle -6.11263e-015 -1.59028e-014
lhumerus -21.6262 -7.19455 91.3407
lradius 17.3191
lwrist 4.53979
lhand -26.1964 -5.72416
lfingers 7.12502
lthumb 0.356021 24.2553
rfemur -13.7819 -2.56945 19.4199
rtibia 20.5593
rfoot -11.8957 -2.24353
rtoes 14.9593
lfemur -11.7043 6.89982 -17.6323
ltibia 16.4266
lfoot -9.15774 2.42285
ltoes 4.73369
651
root 0.283797 17.793 -1.86931 6.54625 -1.0928 -1.23155
lowerback -2.87464 -0.650761 -0.340836
upperback 2.9768 -0.931246 1.83635
thorax 4.72293 -0.508951 2.02565
lowerneck -11.0169 1.06329 -1.69498
upperneck 38.5183 2.24698 -0.525516
head 15.325 0.625 0.432766
rclavicle 4.47266e-015 -7.55382e-015
rhumerus -25.0939 -15.1512 -81.3591
rradius 22.9587
rwrist 33.577
rhand -20.6729 -26.4363
rfingers 7.12502
rthumb 5.69015 -56.3399
lclavicle 4.47266e-015 -7.55382e-015
lhumerus -21.6368 -7.2651 91.3567
lradius 17.3283
lwrist 4.5735
lhand -26.1777 -5.68221
lfingers 7.12502
lthumb 0.374075 24.2972
rfemur -13.7787 -2.57566 19.4143
rtibia 20.5587
rfoot -11.898 -2.24395
rtoes 14.9662
lfemur -11.7014 6.90032 -17.6377
ltibia 16.4225
lfoot -9.15745 2.41431
ltoes 4.74147
652
root 0.283948 17.7931 -1.8695 6.54482 -1.08566 -1.22865
lowerback -2.87771 -0.64842 -0.346131
upperback 2.97491 -0.927831 1.83619
thorax 4.72267 -0.507419 2.02867
lowerneck -11.0167 1.06026 -1.68987
upperneck 38.5113 2.24243 -0.529161
head 15.3216 0.623524 0.429581
rclavicle -3.57812e-015 1.15295e-014
rhumerus -25.0937 -15.1416 -81.3619
rradius 22.9597
rwrist 33.5766
rhand -20.6614 -26.4435
rfingers 7.12502
rthumb 5.70123 -56.3468
lclavicle -3.57812e-015 1.15295e-014
lhumerus -21.6487 -7.32832 91.3711
lradius 17.3385
lwrist 4.60244
lhand -26.1698 -5.65293
lfingers 7.12502
lthumb 0.381782 24.3265
rfemur -13.7764 -2.58405 19.4107
rtibia 20.5576
rfoot -11.8994 -2.24207
rtoes 14.9726
lfemur -11.699 6.90209 -17.6412
ltibia 16.4168
lfoot -9.15612 2.40452
ltoes 4.75167
653
root 0.284165 17.7931 -1.86965 6.54388 -1.07896 -1.22479
lowerback -2.88277 -0.645679 -0.350558
upperback 2.97393 -0.923919 1.83523
thorax 4.72443 -0.50561 2.03039
lowerneck -11.0192 1.05684 -1.68545
upperneck 38.5043 2.23697 -0.531178
head 15.3188 0.621762 0.427092
rclavicle -3.23025e-015 9.14409e-015
rhumerus -25.0919 -15.134 -81.365
rradius 22.9602
rwrist 33.5755
rhand -20.6539 -26.4465
rfingers 7.12502
rthumb 5.7085 -56.3496
lclavicle -3.23025e-015 9.14409e-015
lhumerus -21.6576 -7.38577 91.3826
lradius 17.3488
lwrist 4.63063
lhand -26.169 -5.63136
lfingers 7.12502
lthumb 0.382534 24.348
rfemur -13.7754 -2.59743 19.4059
rtibia 20.5571
rfoot -11.9 -2.23664
rtoes 14.972
lfemur -11.6969 6.90404 -17.6465
ltibia 16.41
lfoot -9.15369 2.39515
ltoes 4.75525
654
root 0.284433 17.793 -1.86983 6.54171 -1.07164 -1.22305
lowerback -2.88614 -0.643498 -0.351536
upperback 2.9733 -0.920946 1.83481
thorax 4.72558 -0.504159 2.03069
lowerneck -11.0247 1.05461 -1.68087
upperneck 38.4978 2.23382 -0.534461
head 15.317 0.620806 0.424433
rclavicle 9.64106e-015 -1.07344e-014
rhumerus -25.0893 -15.1237 -81.3689
rradius 22.9607
rwrist 33.5711
rhand -20.6537 -26.4419
rfingers 7.12502
rthumb 5.70871 -56.345
lclavicle 9.64106e-015 -1.07344e-014
lhumerus -21.6657 -7.4274 91.3901
lradius 17.3585
lwrist 4.65413
lhand -26.1746 -5.61347
lfingers 7.12502
lthumb 0.377091 24.3659
rfemur -13.7732 -2.61231 19.4032
rtibia 20.5568
rfoot -11.9002 -2.23015
rtoes 14.9684
lfemur -11.6946 6.90486 -17.6496
ltibia 16.404
lfoot -9.15025 2.38789
ltoes 4.74354
655
root 0.284709 17.793 -1.87009 6.53776 -1.06341 -1.22138
lowerback -2.88764 -0.641768 -0.351167
upperback 2.97307 -0.918617 1.83388
thorax 4.72607 -0.502971 2.02968
lowerneck -11.0274 1.05301 -1.67699
upperneck 38.4879 2.23121 -0.536511
head 15.3128 0.6202 0.422462
rclavicle -1.28713e-014 1.86858e-014
rhumerus -25.0862 -15.1144 -81.3741
rradius 22.96
rwrist 33.5669
rhand -20.6592 -26.4353
rfingers 7.12502
rthumb 5.70343 -56.3385
lclavicle -1.28713e-014 1.86858e-014
lhumerus -21.6716 -7.45233 91.3921
lradius 17.3681
lwrist 4.6737
lhand -26.1712 -5.57919
lfingers 7.12502
lthumb 0.380348 24.4002
rfemur -13.7694 -2.62643 19.4005
rtibia 20.5574
rfoot -11.9004 -2.22536
rtoes 14.9724
lfemur -11.691 6.90585 -17.6525
ltibia 16.3988
lfoot -9.14718 2.3796
ltoes 4.72864
656
root 0.285008 17.7929 -1.87047 6.53263 -1.05373 -1.22145
lowerback -2.88733 -0.641024 -0.347746
upperback 2.97335 -0.917769 1.83328
thorax 4.72609 -0.502421 2.02719
lowerneck -11.0305 1.05268 -1.67223
upperneck 38.4771 2.23071 -0.539768
head 15.3083 0.620461 0.420155
rclavicle 1.30204e-014 -3.57812e-015
rhumerus -25.0823 -15.1044 -81.3803
rradius 22.9591
rwrist 33.5628
rhand -20.667 -26.4288
rfingers 7.12502
rthumb 5.69584 -56.3322
lclavicle 1.30204e-014 -3.57812e-015
lhumerus -21.6749 -7.45782 91.3883
lradius 17.3747
lwrist 4.68537
lhand -26.1547 -5.53491
lfingers 7.12502
lthumb 0.396327 24.4445
rfemur -13.7641 -2.63877 19.3995
rtibia 20.558
rfoot -11.9009 -2.22296
rtoes 14.9713
lfemur -11.6878 6.90581 -17.6534
ltibia 16.3951
lfoot -9.14424 2.37096
ltoes 4.70852
657
root 0.285287 17.7929 -1.87098 6.5276 -1.04294 -1.22003
lowerback -2.8858 -0.640995 -0.345964
upperback 2.97349 -0.917798 1.83305
thorax 4.72533 -0.502365 2.02596
lowerneck -11.031 1.05261 -1.67041
upperneck 38.4628 2.23127 -0.543035
head 15.3013 0.620813 0.418491
rclavicle -3.47873e-015 7.95139e-015
rhumerus -25.0775 -15.0941 -81.3863
rradius 22.9578
rwrist 33.5578
rhand -20.673 -26.4232
rfingers 7.12502
rthumb 5.69006 -56.3268
lclavicle -3.47873e-015 7.95139e-015
lhumerus -21.6734 -7.4488 91.3819
lradius 17.3752
lwrist 4.69239
lhand -26.1348 -5.48899
lfingers 7.12502
lthumb 0.415557 24.4904
rfemur -13.7591 -2.64904 19.3968
rtibia 20.5591
rfoot -11.9014 -2.22296
rtoes 14.9747
lfemur -11.6849 6.90642 -17.6557
ltibia 16.3919
lfoot -9.14241 2.3581
ltoes 4.69974
658
root 0.28555 17.7929 -1.87167 6.52343 -1.0308 -1.21916
lowerback -2.88567 -0.641616 -0.343686
upperback 2.97469 -0.918775 1.83343
thorax 4.72652 -0.502791 2.02501
lowerneck -11.0286 1.05337 -1.66724
upperneck 38.4429 2.23423 -0.550825
head 15.291 0.621869 0.415
rclavicle 1.83876e-015 -1.59028e-014
rhumerus -25.0721 -15.0833 -81.3928
rradius 22.9586
rwrist 33.5513
rhand -20.6791 -26.4179
rfingers 7.12502
rthumb 5.68417 -56.3217
lclavicle 1.83876e-015 -1.59028e-014
lhumerus -21.6657 -7.42829 91.3728
lradius 17.3699
lwrist 4.69194
lhand -26.1139 -5.44599
lfingers 7.12502
lthumb 0.435757 24.5333
rfemur -13.7557 -2.65778 19.3952
rtibia 20.5604
rfoot -11.9025 -2.22542
rtoes 14.9764
lfemur -11.6845 6.90898 -17.6573
ltibia 16.3902
lfoot -9.14112 2.34073
ltoes 4.7021
659
root 0.285784 17.7929 -1.87245 6.52028 -1.0192 -1.21584
lowerback -2.88698 -0.642658 -0.344372
upperback 2.97639 -0.920176 1.8337
thorax 4.7291 -0.503539 2.02556
lowerneck -11.0271 1.05359 -1.66511
upperneck 38.4213 2.23698 -0.559543
head 15.2801 0.622578 0.411268
rclavicle 1.98785e-016 -7.15625e-015
rhumerus -25.0641 -15.0789 -81.398
rradius 22.9572
rwrist 33.5522
rhand -20.6842 -26.4103
rfingers 7.12502
rthumb 5.67922 -56.3142
lclavicle 1.98785e-016 -7.15625e-015
lhumerus -21.6539 -7.40387 91.3628
lradius 17.3599
lwrist 4.68962
lhand -26.1001 -5.40557
lfingers 7.12502
lthumb 0.4491 24.5737
rfemur -13.754 -2.66429 19.3909
rtibia 20.5624
rfoot -11.9035 -2.22999
rtoes 14.9798
lfemur -11.6857 6.91138 -17.6616
ltibia 16.39
lfoot -9.14003 2.32244
ltoes 4.71153
660
root 0.285923 17.7928 -1.87338 6.51796 -1.00835 -1.21365
lowerback -2.88966 -0.643039 -0.345063
upperback 2.97874 -0.92075 1.83481
thorax 4.73314 -0.503902 2.02703
lowerneck -11.0222 1.05328 -1.66313
upperneck 38.3945 2.23906 -0.569066
head 15.2657 0.622983 0.407069
rclavicle 1.54058e-015 -7.55382e-015
rhumerus -25.0571 -15.0681 -81.4048
rradius 22.9609
rwrist 33.5448
rhand -20.6835 -26.4049
rfingers 7.12502
rthumb 5.67995 -56.3087
lclavicle 1.54058e-015 -7.55382e-015
lhumerus -21.6373 -7.37647 91.3525
lradius 17.3448
lwrist 4.68291
lhand -26.0975 -5.37848
lfingers 7.12502
lthumb 0.45153 24.6008
rfemur -13.7548 -2.66594 19.3883
rtibia 20.5657
rfoot -11.9045 -2.23926
rtoes 14.9823
lfemur -11.6888 6.91046 -17.6639
ltibia 16.3908
lfoot -9.13742 2.30812
ltoes 4.72476
